<svg xmlns="http://www.w3.org/2000/svg" viewBox="0 0 457.62 349.5"><defs><style>.cls-1{fill:#63d1bb;stroke:#fff;stroke-miterlimit:10;stroke-width:25px;}.cls-2{fill:#fff;}</style></defs><title>Vector Smart Object18</title><g id="Laag_1" data-name="Laag 1"><path class="cls-1" d="M509.53,328.75s-4.19-31.86-17.21-45.81c-16.51-18.37-34.88-18.49-43.37-19.53-60.57-4.65-151.38-4.65-151.38-4.65h-.23s-90.8,0-151.38,4.65c-8.49,1-26.86,1.16-43.37,19.53C89.7,297,85.4,328.75,85.4,328.75s-4.07,37.32-4.07,74.64v35A747.06,747.06,0,0,0,85.63,513s4.19,31.86,17.21,45.81c16.51,18.37,38,17.79,47.67,19.77,34.65,3.49,147.08,4.65,147.08,4.65s90.92-.12,151.49-4.77c8.49-1,26.86-1.16,43.37-19.53,12.91-14,17.21-45.81,17.21-45.81A747.07,747.07,0,0,0,514,438.5v-35C513.83,366.07,509.53,328.75,509.53,328.75Z" transform="translate(-68.83 -246.25)"/></g><g id="Layer_2" data-name="Layer 2"><polygon class="cls-2" points="174.69 93.54 174.69 255.84 309.91 174.69 174.69 93.54"/></g></svg>