<svg id="Layer_2" data-name="Layer 2" xmlns="http://www.w3.org/2000/svg" viewBox="0 0 115 23"><defs><style>.cls-1{fill:#e6e6e7;}</style></defs><title>wave-line</title><path class="cls-1" d="M747.46,23c-9,0-13.73-4.59-17.51-8.28C726.53,11.4,724.07,9,718.71,9s-7.82,2.4-11.24,5.72C703.69,18.41,699,23,690,23s-13.73-4.59-17.51-8.28C669,11.4,666.57,9,661.21,9s-7.82,2.4-11.23,5.72c-3.79,3.69-8.5,8.28-17.51,8.28s-13.73-4.59-17.51-8.28C611.54,11.4,609.07,9,603.71,9s-7.82,2.4-11.23,5.72C588.69,18.41,584,23,575,23s-13.73-4.59-17.51-8.28C554,11.4,551.57,9,546.22,9s-7.82,2.4-11.23,5.72c-3.79,3.69-8.5,8.28-17.51,8.28S503.74,18.41,500,14.72C496.54,11.4,494.08,9,488.72,9s-7.82,2.4-11.23,5.72C473.7,18.41,469,23,460,23s-13.73-4.59-17.51-8.28C439,11.4,436.58,9,431.22,9S423.4,11.4,420,14.72c-3.79,3.69-8.5,8.28-17.51,8.28S388.75,18.41,385,14.72C381.55,11.4,379.09,9,373.73,9s-7.82,2.4-11.23,5.72C358.71,18.41,354,23,345,23s-13.73-4.59-17.51-8.28C324.06,11.4,321.59,9,316.24,9s-7.82,2.4-11.23,5.72c-3.79,3.69-8.5,8.28-17.51,8.28S273.76,18.41,270,14.72C266.57,11.4,264.1,9,258.74,9s-7.82,2.4-11.23,5.72C243.72,18.41,239,23,230,23s-13.73-4.59-17.51-8.28C209.07,11.4,206.6,9,201.24,9s-7.82,2.4-11.23,5.72c-3.79,3.69-8.5,8.28-17.51,8.28S158.77,18.41,155,14.72C151.57,11.4,149.11,9,143.75,9s-7.82,2.4-11.23,5.72C128.73,18.41,124,23,115,23s-13.73-4.59-17.51-8.28C94.08,11.4,91.61,9,86.25,9S78.43,11.4,75,14.72C71.23,18.41,66.52,23,57.5,23S43.77,18.41,40,14.72C36.57,11.4,34.11,9,28.75,9s-7.82,2.4-11.24,5.72C13.73,18.41,9,23,0,23s-13.73-4.59-17.52-8.28C-20.93,11.4-23.39,9-28.75,9S-36.57,11.4-40,14.72C-43.77,18.41-48.48,23-57.5,23S-71.23,18.41-75,14.72C-78.43,11.4-80.89,9-86.25,9s-7.82,2.4-11.24,5.72C-101.27,18.41-106,23-115,23s-13.73-4.59-17.52-8.28C-135.93,11.4-138.4,9-143.76,9s-7.82,2.4-11.23,5.72c-3.79,3.69-8.5,8.28-17.51,8.28s-13.73-4.59-17.51-8.28C-193.43,11.4-195.9,9-201.25,9s-7.82,2.4-11.24,5.72C-216.28,18.41-221,23-230,23s-13.73-4.59-17.52-8.28C-250.93,11.4-253.4,9-258.76,9s-7.83,2.4-11.24,5.72c-3.79,3.69-8.5,8.28-17.52,8.28s-13.73-4.59-17.52-8.28C-308.44,11.4-310.91,9-316.27,9s-7.83,2.4-11.24,5.72C-331.29,18.41-336,23-345,23s-13.73-4.59-17.52-8.28C-366,11.4-368.42,9-373.78,9s-7.83,2.4-11.24,5.72c-3.79,3.69-8.5,8.28-17.52,8.28V14c5.36,0,7.83-2.4,11.24-5.72C-387.52,4.59-382.8,0-373.78,0s13.73,4.59,17.52,8.28C-352.85,11.6-350.39,14-345,14s7.83-2.4,11.24-5.72C-330,4.59-325.29,0-316.27,0s13.73,4.59,17.52,8.28c3.41,3.32,5.88,5.72,11.24,5.72s7.83-2.4,11.24-5.72c3.79-3.69,8.5-8.28,17.52-8.28S-245,4.59-241.24,8.28C-237.83,11.6-235.36,14-230,14s7.82-2.4,11.24-5.72C-215,4.59-210.27,0-201.25,0s13.73,4.59,17.51,8.28c3.41,3.32,5.88,5.72,11.24,5.72s7.82-2.4,11.23-5.72c3.79-3.69,8.5-8.28,17.51-8.28S-130,4.59-126.24,8.28C-122.83,11.6-120.36,14-115,14s7.82-2.4,11.24-5.72C-100,4.59-95.27,0-86.25,0s13.73,4.59,17.52,8.28C-65.33,11.6-62.86,14-57.5,14s7.82-2.4,11.24-5.72C-42.48,4.59-37.77,0-28.75,0S-15,4.59-11.24,8.28C-7.82,11.6-5.36,14,0,14s7.82-2.4,11.24-5.72C15,4.59,19.73,0,28.75,0S42.48,4.59,46.27,8.28C49.68,11.6,52.14,14,57.5,14s7.82-2.4,11.24-5.72C72.52,4.59,77.24,0,86.25,0S100,4.59,103.77,8.28C107.18,11.6,109.64,14,115,14s7.82-2.4,11.23-5.72C130,4.59,134.73,0,143.75,0s13.73,4.59,17.51,8.28C164.67,11.6,167.14,14,172.5,14s7.82-2.4,11.23-5.72C187.52,4.59,192.23,0,201.24,0S215,4.59,218.76,8.28C222.17,11.6,224.64,14,230,14s7.82-2.4,11.23-5.72C245,4.59,249.73,0,258.74,0s13.73,4.59,17.51,8.28c3.41,3.32,5.88,5.72,11.23,5.72s7.82-2.4,11.23-5.72C302.51,4.59,307.22,0,316.24,0S330,4.59,333.75,8.28C337.16,11.6,339.63,14,345,14s7.82-2.4,11.23-5.72C360,4.59,364.71,0,373.73,0s13.73,4.59,17.51,8.28c3.41,3.32,5.88,5.72,11.24,5.72s7.82-2.4,11.23-5.72C417.49,4.59,422.21,0,431.22,0s13.73,4.59,17.51,8.28C452.15,11.6,454.61,14,460,14s7.82-2.4,11.24-5.72C475,4.59,479.7,0,488.72,0s13.73,4.59,17.51,8.28c3.41,3.32,5.88,5.72,11.24,5.72s7.82-2.4,11.24-5.72C532.49,4.59,537.2,0,546.22,0s13.73,4.59,17.51,8.28C567.14,11.6,569.61,14,575,14s7.82-2.4,11.23-5.72C590,4.59,594.7,0,603.71,0s13.73,4.59,17.51,8.28C624.64,11.6,627.1,14,632.46,14s7.82-2.4,11.23-5.72C647.48,4.59,652.19,0,661.21,0s13.73,4.59,17.51,8.28C682.14,11.6,684.6,14,690,14s7.82-2.4,11.23-5.72C705,4.59,709.69,0,718.71,0s13.73,4.59,17.51,8.28C739.63,11.6,742.1,14,747.46,14Z"/></svg>