<svg id="Layer_1" data-name="Layer 1" xmlns="http://www.w3.org/2000/svg" viewBox="0 0 113.74 34"><defs><style>.cls-1{fill:#fff;}</style></defs><title>Artboard 1</title><path class="cls-1" d="M718.71,0C704.33,0,704.33,14,690,14S675.59,0,661.21,0s-14.37,14-28.75,14S618.09,0,603.71,0,589.34,14,575,14,560.59,0,546.22,0s-14.37,14-28.75,14S503.09,0,488.72,0,474.35,14,460,14,445.6,0,431.22,0s-14.37,14-28.74,14S388.1,0,373.73,0,359.35,14,345,14,330.61,0,316.24,0s-14.37,14-28.75,14S273.12,0,258.74,0,244.37,14,230,14,215.62,0,201.24,0,186.87,14,172.5,14,158.12,0,143.75,0,129.37,14,115,14,100.63,0,86.25,0,71.88,14,57.5,14,43.13,0,28.75,0,14.37,14,0,14-14.38,0-28.75,0-43.13,14-57.5,14-71.88,0-86.25,0-100.63,14-115,14-129.38,0-143.76,0s-14.37,14-28.75,14S-186.88,0-201.25,0-215.63,14-230,14-244.38,0-258.76,0s-14.38,14-28.75,14S-301.89,0-316.27,0-330.65,14-345,14-359.4,0-373.78,0s-14.38,14-28.76,14V34h1150V14C733.08,14,733.08,0,718.71,0Z"/></svg>